<?xml version="1.0" encoding="utf-8"?>
<!-- Generator: Adobe Illustrator 20.1.0, SVG Export Plug-In . SVG Version: 6.00 Build 0)  -->
<svg version="1.1" id="Layer_1" xmlns="http://www.w3.org/2000/svg" xmlns:xlink="http://www.w3.org/1999/xlink" x="0px" y="0px"
	 viewBox="0 0 792 612" style="enable-background:new 0 0 792 612;" xml:space="preserve">
<title>Artboard 1</title>
<g transform="translate(112 193)">
	
		<image style="overflow:visible;enable-background:new    ;" width="109" height="240" id="image" xlink:href="Avatar-L1.png"  transform="matrix(0.9243 0 0 0.9751 127.6283 195.4836)">
	</image>
</g>
<image style="overflow:visible;enable-background:new    ;" width="128" height="240" xlink:href="Avatar-L2.png"  transform="matrix(1 0 0 1 221 193)">
</image>
<image style="overflow:visible;enable-background:new    ;" width="118" height="240" xlink:href="Avatar-L3.png"  transform="matrix(1 0 0 1 349 193)">
</image>
<g transform="matrix(-1, 0, 0, 1, 576, 193)">
	
		<image style="overflow:visible;enable-background:new    ;" width="109" height="240" id="image_2_" xlink:href="Avatar-L1.png"  transform="matrix(-0.8967 0 0 1.0126 571.3717 192.4836)">
	</image>
</g>
<image style="overflow:visible;enable-background:new    ;" width="128" height="240" xlink:href="Avatar2.png"  transform="matrix(1 0 0 1 576 193)">
</image>
<image style="overflow:visible;enable-background:new    ;" width="118" height="240" xlink:href="Avatar3.png"  transform="matrix(1 0 0 1 704 193)">
</image>
<image style="overflow:visible;" width="111" height="240" xlink:href="Avatar.png"  transform="matrix(1 0 0 1 5 196)">
</image>
</svg>
